<svg width="22" height="21" viewBox="0 0 22 21" fill="none" xmlns="http://www.w3.org/2000/svg">
<path d="M4.78261 21H0V6.68182H4.78261V21ZM2.39226 4.77273C1.06939 4.77273 0 3.70268 0 2.38541C0 1.06814 1.0713 0 2.39226 0C3.71035 0 4.78261 1.07005 4.78261 2.38541C4.78261 3.70268 3.71035 4.77273 2.39226 4.77273ZM22 21H17.402V14.0318C17.402 12.37 17.3704 10.2327 15.0117 10.2327C12.6175 10.2327 12.2492 12.0425 12.2492 13.9115V21H7.65217V6.67132H12.0656V8.62909H12.1277C12.7418 7.50273 14.2426 6.31527 16.4809 6.31527C21.1391 6.31527 22 9.28296 22 13.1412V21Z" fill="white"/>
</svg>
