<svg width="19" height="19" viewBox="0 0 19 19" fill="none" xmlns="http://www.w3.org/2000/svg">
<path d="M9.5 1.71C12.0333 1.71 12.3342 1.71792 13.3396 1.76542C15.9125 1.88417 17.1158 3.10333 17.2346 5.66042C17.2821 6.66583 17.29 6.96667 17.29 9.5C17.29 12.0333 17.2821 12.3342 17.2346 13.3396C17.1158 15.8967 15.9204 17.1158 13.3396 17.2346C12.3342 17.2821 12.0413 17.29 9.5 17.29C6.95875 17.29 6.66583 17.2821 5.66042 17.2346C3.07958 17.1158 1.88417 15.8888 1.76542 13.3396C1.71792 12.3342 1.71 12.0413 1.71 9.5C1.71 6.95875 1.71792 6.66583 1.76542 5.66042C1.88417 3.10333 3.07958 1.88417 5.66042 1.76542C6.66583 1.71792 6.95875 1.71 9.5 1.71ZM9.5 0C6.91917 0 6.59458 0.00791667 5.58125 0.0554167C2.1375 0.21375 0.21375 2.12958 0.0554167 5.58125C0.00791667 6.59458 0 6.91917 0 9.5C0 12.0808 0.00791667 12.4054 0.0554167 13.4188C0.21375 16.8704 2.12958 18.7863 5.58125 18.9446C6.59458 18.9921 6.91917 19 9.5 19C12.0808 19 12.4054 18.9921 13.4188 18.9446C16.8625 18.7863 18.7863 16.8704 18.9446 13.4188C18.9921 12.4054 19 12.0808 19 9.5C19 6.91917 18.9921 6.59458 18.9446 5.58125C18.7863 2.1375 16.8704 0.21375 13.4188 0.0554167C12.4054 0.00791667 12.0808 0 9.5 0ZM9.5 4.62333C6.80833 4.62333 4.62333 6.80833 4.62333 9.5C4.62333 12.1917 6.80833 14.3767 9.5 14.3767C12.1917 14.3767 14.3767 12.1917 14.3767 9.5C14.3767 6.80833 12.1917 4.62333 9.5 4.62333ZM9.5 12.6667C7.75042 12.6667 6.33333 11.2496 6.33333 9.5C6.33333 7.75042 7.75042 6.33333 9.5 6.33333C11.2496 6.33333 12.6667 7.75042 12.6667 9.5C12.6667 11.2496 11.2496 12.6667 9.5 12.6667ZM14.5746 3.28542C13.9412 3.28542 13.4346 3.79208 13.4346 4.42542C13.4346 5.05875 13.9492 5.56542 14.5746 5.56542C15.2 5.56542 15.7146 5.05875 15.7146 4.42542C15.7146 3.79208 15.2079 3.28542 14.5746 3.28542Z" fill="white"/>
</svg>
