<?xml version="1.0" encoding="UTF-8"?>
<svg id="Layer_1" data-name="Layer 1" xmlns="http://www.w3.org/2000/svg" viewBox="0 0 44.25 41.87">
  <defs>
    <style>
      .cls-1 {
        fill: none;
        stroke: #fff;
        stroke-linecap: round;
        stroke-linejoin: round;
        stroke-width: .89px;
      }
    </style>
  </defs>
  <path class="cls-1" d="M18.82,8.22h3.01c-.07.08-.15.14-.22.22l-2.32,2.6,2.32,2.6c1.55,1.75,3.53,3.03,5.7,3.76,0,.39-.32.7-.71.7h-7.78v-5.5M14.58,19.52h9.9M10.34,8.22h4.24v9.89h-4.24v-9.89ZM25.87,6.85c-.87,1.17-1.4,2.62-1.4,4.2s.52,3.02,1.4,4.19M41.49,8.44c-1.02-1.14-2.22-2.08-3.53-2.8l1.87-1.87-1-1-2.22,2.22c-.51-.21-1.03-.38-1.56-.53l1.22-2.94-1.31-.54-1.32,3.18c-.44-.07-.89-.12-1.35-.14-.01,0-.02,0-.03,0V.44h-1.41v3.57s-.02,0-.03,0c-.45.03-.9.07-1.35.14l-1.32-3.18-1.31.54,1.22,2.94c-.53.15-1.05.32-1.56.53l-2.22-2.22-1,1,1.87,1.87c-.62.34-1.21.73-1.76,1.17h-13.03c-.78,0-1.41.63-1.41,1.41h-1.41c-.78,0-1.41.63-1.41,1.41v.71h-1.41v-1.41c0-.78-.63-1.41-1.41-1.41h-1.41c-.78,0-1.41.63-1.41,1.41v8.48c0,.78.63,1.41,1.41,1.41h1.41c.78,0,1.41-.63,1.41-1.41v-1.41h1.41v.71c0,.78.63,1.41,1.41,1.41h1.41c0,.78.63,1.41,1.41,1.41h2.83v1.99l-6.21,16.56c-.1.27-.15.55-.15.83v.15c0,1.31,1.06,2.37,2.37,2.37.99,0,1.88-.62,2.23-1.55l1.78-4.81h12.68l1.78,4.81c.34.93,1.24,1.55,2.23,1.55,1.31,0,2.37-1.06,2.37-2.37v-.15c0-.29-.05-.57-.15-.83l-6.21-16.56v-1.99h.71c1.04,0,1.9-.75,2.08-1.73.69.15,1.41.24,2.12.28.24.02.49.04.74.04s.5-.01.74-.04c3.52-.2,6.84-1.77,9.2-4.42l2.32-2.6-2.32-2.6Z"/>
  <path class="cls-1" d="M35.08,13.51c.47-.71.72-1.54.72-2.39,0-2.39-1.93-4.34-4.31-4.34"/>
  <path class="cls-1" d="M27.92,8.65c-.47.71-.72,1.54-.72,2.39,0,2.4,1.95,4.34,4.34,4.34.85,0,1.68-.25,2.39-.72"/>
</svg>