<?xml version="1.0" encoding="UTF-8"?>
<svg id="Layer_1" data-name="Layer 1" xmlns="http://www.w3.org/2000/svg" viewBox="0 0 41.91 41.91">
  <defs>
    <style>
      .cls-1 {
        fill: none;
        stroke: #fff;
        stroke-miterlimit: 10;
        stroke-width: .79px;
      }
    </style>
  </defs>
  <path class="cls-1" d="M23.42,20.96c0,1.36-1.1,2.47-2.47,2.47s-2.47-1.1-2.47-2.47,1.1-2.47,2.47-2.47,2.47,1.1,2.47,2.47"/>
  <path class="cls-1" d="M27.41,22.08h4.8c-.52,5.32-4.76,9.57-10.09,10.09v-4.76c0-.61-.52-1.13-1.13-1.13s-1.12.52-1.12,1.13v4.8c-5.32-.52-9.57-4.76-10.09-10.09h4.81c.61,0,1.13-.52,1.13-1.12s-.52-1.13-1.13-1.13h-4.89c.52-5.32,4.76-9.57,10.09-10.09v4.8c0,.61.52,1.12,1.12,1.12s1.13-.52,1.13-1.12v-4.89c5.32.52,9.57,4.76,10.09,10.09h-4.72c-.61,0-1.12.52-1.12,1.13,0,.65.48,1.17,1.12,1.17ZM40.39,19.83h-1.26c-.56-9.13-7.92-16.49-17.06-17.06v-1.26c0-.61-.52-1.12-1.13-1.12s-1.12.52-1.12,1.12v1.26C10.7,3.34,3.34,10.7,2.77,19.83h-1.26c-.61,0-1.12.52-1.12,1.12s.52,1.13,1.12,1.13h1.26c.56,9.13,7.92,16.49,17.06,17.06v1.25c0,.61.52,1.13,1.12,1.13s1.13-.52,1.13-1.13v-1.25c9.13-.56,16.49-7.92,17.06-17.06h1.26c.61,0,1.12-.52,1.12-1.13s-.52-1.12-1.12-1.12Z"/>
</svg>