<?xml version="1.0" encoding="UTF-8"?>
<svg id="Layer_1" data-name="Layer 1" xmlns="http://www.w3.org/2000/svg" xmlns:xlink="http://www.w3.org/1999/xlink" viewBox="0 0 10.9 11.33">
  <defs>
    <style>
      .cls-1 {
        clip-path: url(#clippath);
      }

      .cls-2 {
        stroke-width: 0px;
      }

      .cls-2, .cls-3 {
        fill: none;
      }

      .cls-3 {
        stroke: #ad3187;
        stroke-linejoin: round;
        stroke-width: .33px;
      }
    </style>
    <clipPath id="clippath">
      <rect class="cls-2" width="10.9" height="11.33"/>
    </clipPath>
  </defs>
  <g class="cls-1">
    <path class="cls-3" d="M7.35,8.45l2.92-1.53c.1-.05.21-.05.31,0,.1.05.16.15.16.26,0,.11-.06.21-.15.26h-.01l-4.41,3.07c-.38.25-.83.36-1.28.31l-2.68-.3s-.05,0-.08,0l-1.96.64v-2.1l1.71-1.26c.68-.5,1.57-.67,2.4-.44l.83.22,1.2.33c.1.03.19.1.24.18.05.09.06.2.03.3-.01.04-.03.08-.06.11l-.02.02c-.05.06-.11.1-.19.12-.07.02-.15.02-.22,0-.75-.22-1.76-.46-2.31-.29l-.78.24M5.75,7.19l.81-.44c.43-.23.94-.3,1.41-.19M6.92,7.57l1.36-.74c.38-.2.84-.24,1.25-.11h0l.14.05M4.96.89C5.65.27,6.61.02,7.52.24c.91.22,1.65.87,1.96,1.73.31.86.15,1.82-.42,2.54-.2-.51-.57-.95-1.06-1.22-.03-.02-.06-.06-.07-.09-.01-.05,0-.1.03-.14.26-.35.35-.8.24-1.22-.1-.46-.44-.83-.9-.98-.38-.12-.8-.05-1.12.18-.37.28-.59.7-.58,1.16,0,.3.1.6.28.84.03.05.05.1.03.16,0,.03-.03.06-.06.08-.5.28-.88.71-1.07,1.23-.44-.52-.66-1.17-.63-1.84.03-.67.32-1.3.8-1.78h.01ZM8.78,4.79c-.51.45-1.17.7-1.86.7s-1.35-.25-1.86-.7"/>
  </g>
</svg>