<?xml version="1.0" encoding="UTF-8"?>
<svg id="Layer_1" data-name="Layer 1" xmlns="http://www.w3.org/2000/svg" viewBox="0 0 37.58 41.87">
  <defs>
    <style>
      .cls-1 {
        fill: none;
        stroke: #fff;
        stroke-linecap: round;
        stroke-linejoin: round;
        stroke-width: .82px;
      }
    </style>
  </defs>
  <path class="cls-1" d="M20.25.41c-.34,0-.67.14-.91.38s-.38.57-.38.91v1.9h-1.9c-.46,0-.88.24-1.11.64-.23.4-.23.89,0,1.28.23.4.65.64,1.11.64h1.9v1.91c0,.46.24.88.64,1.11.4.23.89.23,1.29,0,.4-.23.64-.65.64-1.11v-1.9h1.9c.46,0,.88-.25,1.11-.64.23-.4.23-.89,0-1.29-.23-.4-.65-.64-1.11-.64h-1.9v-1.9c0-.34-.14-.67-.38-.91-.24-.24-.57-.38-.91-.38ZM25.15,13.74h1.9v1.9c0,.46.25.88.64,1.11.4.23.89.23,1.29,0,.4-.23.64-.65.64-1.11v-1.9h1.9c.46,0,.88-.25,1.12-.64.23-.4.23-.89,0-1.29-.23-.4-.66-.64-1.12-.64h-1.9v-1.9c0-.46-.24-.88-.64-1.11-.4-.23-.89-.23-1.29,0-.4.23-.64.65-.64,1.11v1.9h-1.91c-.46,0-.88.25-1.11.64-.23.4-.23.89,0,1.29.23.4.65.64,1.11.64h0ZM14.5,11.92c0-.4-.16-.78-.44-1.06-.28-.28-.66-.44-1.06-.44h-2.21v-2.21c0-.53-.28-1.03-.75-1.3-.46-.27-1.03-.27-1.5,0-.46.27-.75.76-.75,1.3v2.21h-2.21c-.53,0-1.03.28-1.29.75-.27.46-.27,1.03,0,1.5.27.46.76.75,1.29.75h2.21v2.21c0,.53.29,1.03.75,1.3.46.27,1.03.27,1.49,0,.46-.27.75-.76.75-1.3v-2.23h2.21c.39,0,.77-.16,1.05-.43.28-.28.44-.65.44-1.04ZM20.82,22.45h2.99c.71-.03,1.34-.43,1.69-1.04.34-.62.34-1.37,0-1.98-.34-.62-.98-1.01-1.69-1.04h-2.99v-3.01c-.03-.7-.43-1.34-1.04-1.69-.62-.34-1.37-.34-1.98,0-.62.34-1.01.98-1.04,1.69v3h-2.99c-.7.03-1.34.43-1.69,1.04-.34.62-.34,1.37,0,1.98.34.62.98,1.01,1.69,1.04h3v3.01c-.02.56.18,1.1.56,1.5.38.4.92.63,1.47.63s1.09-.23,1.47-.63c.38-.4.59-.94.56-1.5v-3ZM14.6,29.92l-5.57-5.56c-.37-.37-.89-.57-1.41-.55-.53.02-1.02.27-1.35.68-.29.37-.43.84-.4,1.32.03.47.24.92.58,1.25l2.67,2.67c.13.13.19.31.18.49-.01.18-.11.35-.25.45-.26.19-.62.15-.84-.09l-3.07-3.07h0c-.44-.44-.67-1.05-.64-1.68l.47-7.12c.03-.68-.3-1.34-.87-1.71-.57-.38-1.3-.42-1.92-.12-.62.3-1.03.9-1.08,1.59l-.67,8.98c-.09,1.33.4,2.63,1.34,3.58l6.49,6.49v3.94h9.07l-.03-5.03c0-2.44-.98-4.78-2.7-6.51h0ZM35.8,31.02l-6.49,6.5v3.94h-9.06l.02-5.03c0-2.44.98-4.78,2.7-6.51l5.57-5.56c.37-.37.89-.57,1.41-.55.53.02,1.02.27,1.35.68.29.37.43.84.4,1.32s-.24.92-.58,1.25l-2.67,2.67c-.13.13-.19.31-.18.49.01.18.11.35.25.45.26.19.62.15.84-.09l3.07-3.07h0c.44-.44.67-1.05.64-1.68l-.48-7.14c-.03-.68.3-1.34.87-1.71.57-.38,1.3-.42,1.92-.12.62.3,1.03.9,1.08,1.59l.68,9c.09,1.33-.41,2.64-1.36,3.58Z"/>
</svg>