<?xml version="1.0" encoding="UTF-8"?>
<svg id="Layer_1" data-name="Layer 1" xmlns="http://www.w3.org/2000/svg" xmlns:xlink="http://www.w3.org/1999/xlink" viewBox="0 0 13.65 14.28">
  <defs>
    <style>
      .cls-1 {
        clip-path: url(#clippath);
      }

      .cls-2, .cls-3 {
        stroke-width: 0px;
      }

      .cls-2, .cls-4 {
        fill: none;
      }

      .cls-3 {
        fill: #3d85c6;
      }

      .cls-4 {
        stroke: #3d85c6;
        stroke-linejoin: round;
        stroke-width: .34px;
      }
    </style>
    <clipPath id="clippath">
      <rect class="cls-2" y="0" width="13.65" height="14.28"/>
    </clipPath>
  </defs>
  <g class="cls-1">
    <path class="cls-4" d="M1.68,10.56l.61.59M3.8,14.1l1.51-1.48-3.63-3.55-1.51,1.48,3.63,3.55ZM6.52,9.97h2.42c1.21,0,1.21-1.48,0-1.48h-1.6c-.25,0-.72-.59-1.12-.59h-1.51c-.41,0-.92.32-1.21.59-.45.44-1.21,1.18-1.21,1.18M4.71,12.04c.12-.11.23-.3.61-.3h4.23c.34,0,2.19-1.81,2.42-2.07.23-.25,1.23-1.73,1.51-2.37-.18-.23-.65-.42-1.21-.3-.54.12-.85.5-1.21,1.18l-1.39.7"/>
    <path class="cls-4" d="M9.27,2.27c-.08.12-.54.18-.74.18s-.66-.07-.74-.18c0,0-.85-1.61-.82-1.67.31-.56.95-.45,1.56-.3.86.22,1.2.18,1.37.17.02.23-.63,1.8-.63,1.8ZM7.8,2.27c-1.69,1.2-2.65,2.62-2.65,4.18,0,.48.13.88.36,1.2M11.89,6.89c.03-.14.04-.28.04-.44,0-1.57-.97-2.98-2.65-4.18"/>
    <path class="cls-3" d="M7.57,4.14h0s.5.01.5.01c.08,0,.18.02.28.06.15.07.24.16.3.27h0s-.89,0-.89,0c0,0-.07.1-.19.31,0,0,0,.01.01.01h1.12s0,.09-.02.14c-.1.31-.36.46-.77.46-.09,0-.16,0-.23-.02h0v.31s.37.5,1.11,1.47h.41s0,0,0,0v-.06l-.93-1.28c-.08-.11-.12-.17-.12-.18h0c.17,0,.34-.06.52-.15.1-.05.2-.14.31-.29.08-.15.12-.28.13-.38h.35s.06-.1.19-.31c0,0,0,0,0,0h-.54c-.02-.13-.07-.24-.14-.34h.5s.08-.12.19-.31h0s-1.89,0-1.89,0c0,0-.07.1-.19.31"/>
  </g>
</svg>