<?xml version="1.0" encoding="UTF-8"?>
<svg id="Layer_1" data-name="Layer 1" xmlns="http://www.w3.org/2000/svg" xmlns:xlink="http://www.w3.org/1999/xlink" viewBox="0 0 12.5 13.26">
  <defs>
    <style>
      .cls-1 {
        clip-path: url(#clippath);
      }

      .cls-2 {
        stroke-width: 0px;
      }

      .cls-2, .cls-3 {
        fill: none;
      }

      .cls-3 {
        stroke: #b3ba35;
        stroke-linejoin: round;
        stroke-width: .38px;
      }
    </style>
    <clipPath id="clippath">
      <rect class="cls-2" y="0" width="12.5" height="13.26"/>
    </clipPath>
  </defs>
  <g class="cls-1">
    <path class="cls-3" d="M1.57,9.7l.55.56M3.49,13.07l1.38-1.4-3.31-3.37-1.38,1.4,3.3,3.37ZM5.97,9.14h2.2c1.1,0,1.1-1.4,0-1.4h-1.46c-.23,0-.66-.56-1.02-.56h-1.38c-.37,0-.84.31-1.1.56-.41.42-1.1,1.12-1.1,1.12M4.32,11.1c.11-.11.21-.28.55-.28h3.86c.31,0,1.99-1.72,2.2-1.97.21-.24,1.12-1.64,1.38-2.25-.16-.22-.59-.4-1.1-.28-.49.11-.77.47-1.1,1.12l-1.26.67"/>
    <path class="cls-3" d="M7.19,5.53c.22-2.11,1.76-2.9,2.78-3.84M7.61,4.3c-.65-.71-.57-1.94-.19-2.43,1-1.32,2.37-.93,3.46-1.68.57,1.04.26,2.73-.67,3.77-.63.7-1.49.6-1.92.5M5.62,2.88c.7.43.78,1.53.78,1.53,0,0-.99.42-1.69-.01-.7-.43-1.49-1.96-1.49-1.96,0,0,1.7,0,2.4.44ZM10.37,6.66l-.53-.56h-.8l-.79-.56h-.53l-.53-.28-.53.56h-.8l-.79.56v.56"/>
  </g>
</svg>