<?xml version="1.0" encoding="UTF-8"?>
<svg id="Layer_1" data-name="Layer 1" xmlns="http://www.w3.org/2000/svg" xmlns:xlink="http://www.w3.org/1999/xlink" viewBox="0 0 11.89 11.93">
  <defs>
    <style>
      .cls-1 {
        clip-path: url(#clippath);
      }

      .cls-2 {
        stroke-width: 0px;
      }

      .cls-2, .cls-3 {
        fill: none;
      }

      .cls-3 {
        stroke: #e97724;
        stroke-linejoin: round;
        stroke-width: .41px;
      }
    </style>
    <clipPath id="clippath">
      <rect class="cls-2" width="11.89" height="11.93"/>
    </clipPath>
  </defs>
  <g class="cls-1">
    <path class="cls-3" d="M9.29,2.81c.62,0,1.07-.43,1.07-1.04v-.52c0-.62-.45-1.04-1.07-1.04s-1.07.42-1.07,1.04v.52c0,.62.45,1.04,1.07,1.04ZM10.62,11.93v-6.51M10.62,8.28c.52,0,1.07-.28,1.07-.78v-2.6c0-.86-1.57-1.3-2.4-1.3h-.53M6.08,2.81c.62,0,1.07-.43,1.07-1.04v-.52c0-.62-.45-1.04-1.07-1.04s-1.07.42-1.07,1.04v.52c0,.62.45,1.04,1.07,1.04ZM2.87,8.02v3.91M1.27,5.41v6.51M4.48,11.93v-6.51M7.42,11.93v-6.51M2.87,2.81c.62,0,1.07-.43,1.07-1.04v-.52c0-.62-.45-1.04-1.07-1.04s-1.07.42-1.07,1.04v.52c0,.62.44,1.04,1.07,1.04ZM7.42,8.28c.52,0,1.07-.28,1.07-.78v-2.6c0-.86-1.57-1.3-2.4-1.3h-.54M4.48,8.28c.58,0,1.07-.53,1.07-1.04v-2.34c0-.86-1.74-1.3-2.67-1.3S.2,4.03.2,4.89v2.34c0,.51.49,1.04,1.07,1.04"/>
  </g>
</svg>