<?xml version="1.0" encoding="UTF-8"?>
<svg id="Layer_1" data-name="Layer 1" xmlns="http://www.w3.org/2000/svg" xmlns:xlink="http://www.w3.org/1999/xlink" viewBox="0 0 10.33 10.17">
  <defs>
    <style>
      .cls-1 {
        clip-path: url(#clippath);
      }

      .cls-2 {
        stroke-width: 0px;
      }

      .cls-2, .cls-3 {
        fill: none;
      }

      .cls-3 {
        stroke: #b3ba35;
        stroke-linejoin: round;
        stroke-width: .35px;
      }
    </style>
    <clipPath id="clippath">
      <rect class="cls-2" width="10.33" height="10.17"/>
    </clipPath>
  </defs>
  <g class="cls-1">
    <path class="cls-3" d="M6.79,6.04h-.04c-.86.27-1.55.47-2.03.47h-1.94c-.14,0-.28.06-.38.16-.1.1-.16.24-.16.38,0,.14.06.28.16.38.1.1.24.16.38.16h0l2.06.2c.49.08.78.22.82.38,0,.01,0,.03,0,.04,0,.09-.08.17-.2.19,0,0-.02,0-.03,0l-.46-.18-1.07-.41-1.07-.1h-.06c-.12,0-.25-.04-.35-.11-.1-.07-.19-.16-.24-.28-.02-.03-.03-.06-.04-.1-.01-.04-.02-.09-.02-.13l-1.21-.48c-.06-.03-.13-.04-.2-.04-.14,0-.27.05-.37.15-.1.1-.15.23-.15.37,0,.18.1.35.25.45,1.21.74,3.9,2.2,4.52,2.39.7.21,3.57-.39,3.96-.47v-2.47c-.34-.31-.72-.58-1.13-.8-.34-.16-.69-.26-.99-.17h0ZM9.02,7.04h1.13v2.42h-1.13v-2.42ZM6.64,1.58c.15.91-.47,1.77-1.38,1.92s-1.77-.47-1.92-1.38c-.15-.91.47-1.77,1.38-1.92.91-.15,1.77.47,1.92,1.38M2.15,6.79v.1c.03-.11.09-.21.17-.29.12-.12.29-.19.46-.19h1.94c.47,0,1.15-.2,2.01-.46h.04c.31-.11.66-.02.99.13-.16-.61-.51-1.15-1.01-1.54-.5-.39-1.11-.6-1.74-.6-.76,0-1.48.3-2.02.84-.53.53-.83,1.26-.83,2.02Z"/>
  </g>
</svg>