<?xml version="1.0" encoding="UTF-8"?>
<svg id="Layer_1" data-name="Layer 1" xmlns="http://www.w3.org/2000/svg" xmlns:xlink="http://www.w3.org/1999/xlink" viewBox="0 0 9.77 8.87">
  <defs>
    <style>
      .cls-1 {
        clip-path: url(#clippath);
      }

      .cls-2 {
        stroke-width: 0px;
      }

      .cls-2, .cls-3 {
        fill: none;
      }

      .cls-3 {
        stroke: #9ab7e0;
        stroke-width: .38px;
      }
    </style>
    <clipPath id="clippath">
      <rect class="cls-2" y="0" width="9.77" height="8.87"/>
    </clipPath>
  </defs>
  <g class="cls-1">
    <path class="cls-3" d="M3.54,1.07l.85.64-.85.64v-1.29ZM3.8,3.16c.82,0,1.5-.66,1.5-1.49S4.63.19,3.8.19s-1.5.66-1.5,1.49.68,1.48,1.5,1.48ZM5.23,4.11H1.95M4.39,4.93H1.95M7.83,6.24H1.95M6.64,4.23c.52,0,.94.41.96.92v.03c0,.09-.07.15-.15.15h-1.62c-.09,0-.15-.06-.15-.15,0-.53.42-.95.95-.95ZM6.64,2.84c.34,0,.6.26.6.6s-.27.6-.6.6-.6-.26-.6-.6.26-.6.6-.6ZM2.04,1.97h-.68c-.09,0-.15.07-.15.15v4.73c0,.07.06.15.15.15h7.05c.07,0,.15-.07.15-.15V2.12c0-.07-.07-.15-.15-.15h-2.85M2.06,1.24H.63c-.09,0-.15.06-.15.15v6.05h-.15c-.09,0-.15.07-.15.15,0,.6.5,1.1,1.1,1.1h7.19c.6,0,1.1-.5,1.1-1.1.02-.09-.06-.15-.13-.15h-.15V1.39c0-.09-.07-.15-.15-.15h-3.61"/>
  </g>
</svg>