<?xml version="1.0" encoding="UTF-8"?>
<svg id="Layer_1" data-name="Layer 1" xmlns="http://www.w3.org/2000/svg" xmlns:xlink="http://www.w3.org/1999/xlink" viewBox="0 0 10.98 11.05">
  <defs>
    <style>
      .cls-1 {
        stroke: #7b8422;
        stroke-width: .38px;
      }

      .cls-1, .cls-2 {
        fill: none;
      }

      .cls-3 {
        clip-path: url(#clippath);
      }

      .cls-2 {
        stroke-width: 0px;
      }
    </style>
    <clipPath id="clippath">
      <rect class="cls-2" width="10.98" height="11.05"/>
    </clipPath>
  </defs>
  <g class="cls-3">
    <path class="cls-1" d="M8.73,9.16h-1.06v-2.66c0-.3.23-.53.53-.53s.53.23.53.53v2.66ZM6.82,9.16h-1.06v-2.66c0-.3.23-.53.53-.53s.53.23.53.53v2.66ZM4.9,9.16h-1.06v-2.66c0-.3.23-.53.53-.53s.53.23.53.53v2.66ZM2.99,9.16h-1.06v-2.66c0-.3.23-.53.53-.53s.53.23.53.53v2.66ZM10.78,10.35l-.55-2.15v-3.18H.65v3.18l-.45,2.15c-.06.26.17.51.36.51h9.96c.19,0,.32-.26.26-.51ZM.43,4.27v-.85L5.43.22l5,3.19v.85"/>
  </g>
</svg>