<?xml version="1.0" encoding="UTF-8"?>
<svg id="Layer_1" data-name="Layer 1" xmlns="http://www.w3.org/2000/svg" xmlns:xlink="http://www.w3.org/1999/xlink" viewBox="0 0 13.79 9.69">
  <defs>
    <style>
      .cls-1 {
        clip-path: url(#clippath);
      }

      .cls-2, .cls-3 {
        fill: none;
      }

      .cls-2, .cls-4 {
        stroke-width: 0px;
      }

      .cls-3 {
        stroke: #a35313;
        stroke-linejoin: round;
        stroke-width: .37px;
      }

      .cls-4 {
        fill: #a35313;
      }
    </style>
    <clipPath id="clippath">
      <rect class="cls-2" x="0" y="0" width="13.79" height="9.69"/>
    </clipPath>
  </defs>
  <g class="cls-1">
    <path class="cls-3" d="M11.93,3.04c-.36.3-.81.47-1.27.47s-.92-.17-1.27-.47c-1,.41-1.68,1.28-1.68,2.18,0,.72,2.36.81,2.95.81s2.95-.09,2.95-.81c0-.9-.68-1.76-1.68-2.18ZM12.03,1.55c0,.75-.62,1.36-1.38,1.36s-1.38-.61-1.38-1.36.62-1.36,1.38-1.36,1.38.61,1.38,1.36M3.14,6.03c.59,0,2.95-.09,2.95-.81,0-.9-.68-1.76-1.68-2.18-.36.3-.81.47-1.28.47s-.92-.17-1.27-.47c-1,.41-1.68,1.28-1.68,2.18,0,.72,2.36.81,2.95.81ZM4.51,1.55c0,.75-.62,1.36-1.38,1.36s-1.38-.61-1.38-1.36S2.38.19,3.14.19s1.38.61,1.38,1.36M3.29,6.39h-.25c-.07,0-.12.06-.12.12v2.87c0,.07.06.12.12.12h2.09c.07,0,.12-.06.12-.12v-.25c0-.07-.06-.12-.12-.12h-1.72v-2.5c0-.07-.05-.12-.12-.12ZM10.88,9.38v-2.87c0-.07-.06-.12-.12-.12h-.25c-.07,0-.12.06-.12.12v2.5h-1.72c-.07,0-.12.05-.12.12v.25c0,.07.06.12.12.12h2.1c.07,0,.12-.06.12-.12Z"/>
    <path class="cls-4" d="M7.66,7.54c-.03.05-.05.11-.07.16h-.27c-.01.11-.05.2-.1.27-.05.08-.11.14-.18.19-.07.05-.14.09-.22.11s-.15.03-.22.03h-.02s-.01,0-.01.01c.14.14.28.29.41.45s.26.32.39.48v.03h-.52l-.54-.68s-.09-.1-.14-.15c-.05-.05-.09-.09-.12-.12.02-.06.03-.11.05-.17.01-.06.03-.11.05-.17.07.02.15.03.23.03.12,0,.22-.03.32-.08.09-.05.16-.14.18-.25h-.8v-.33h.79c-.06-.15-.2-.23-.41-.23h-.38v-.32h1.67c-.03.05-.05.11-.08.16-.03.05-.05.11-.07.16h-.47s.06.06.09.1.06.08.08.13h.45c-.03.06-.05.11-.08.17"/>
  </g>
</svg>