<?xml version="1.0" encoding="UTF-8"?>
<svg id="Layer_1" data-name="Layer 1" xmlns="http://www.w3.org/2000/svg" xmlns:xlink="http://www.w3.org/1999/xlink" viewBox="0 0 13.72 11.84">
  <defs>
    <style>
      .cls-1 {
        clip-path: url(#clippath);
      }

      .cls-2 {
        stroke-width: 0px;
      }

      .cls-2, .cls-3 {
        fill: none;
      }

      .cls-3 {
        stroke: #8bd3da;
        stroke-width: .38px;
      }
    </style>
    <clipPath id="clippath">
      <rect class="cls-2" y="0" width="13.72" height="11.84"/>
    </clipPath>
  </defs>
  <g class="cls-1">
    <path class="cls-3" d="M5.49,11.06h-.3v.59h3.32v-.59h-3.03ZM8.22,4.71c-.14,0-.26.1-.3.23v1.69s-.02.08-.05.11c-.03.03-.07.04-.11.04-.09,0-.16-.07-.16-.16v-1.68c-.01-.08-.06-.15-.13-.2h-.02s-.09-.05-.14-.05c-.08,0-.15.03-.21.09-.06.06-.09.13-.09.21v1.66c0,.09-.07.16-.16.16s-.16-.07-.16-.16v-1.66c0-.16-.13-.3-.3-.3-.05,0-.1.01-.14.04,0,0-.01,0-.02.01-.09.05-.14.15-.14.25v1.57c0,.09-.07.16-.16.16s-.16-.07-.16-.16v-1.57c0-.08-.02-.16-.08-.22-.06-.06-.13-.09-.22-.09s-.16.03-.22.09c-.06.06-.09.14-.08.22v2.38c0,.09-.07.16-.16.16s-.16-.07-.16-.16v-.57c0-.16-.13-.3-.3-.3s-.3.13-.3.3v1.36c0,.51.25.99.68,1.28l.61.4s.07.08.07.13v.75h2.42v-.74s0-.05.02-.07l.27-.56c.1-.21.16-.45.16-.69v-3.68c0-.16-.13-.29-.29-.29ZM11.28.56l.51-.3,1.66,2.87-.51.3-1.66-2.87ZM11.23,1.11l-.65.38s-.05.02-.07.02l-.61.04c-.24.01-.47.08-.68.2l-3.2,1.84c-.14.08-.19.26-.11.4.07.12.22.18.36.14l.05-.03,1.36-.78c.08-.04.17-.01.21.06.04.07.02.16-.05.21l-1.41.81h0c.16,0,.32.08.42.21.12-.13.28-.2.46-.2.07,0,.15.01.21.04l.66-.39c.07-.03.16,0,.2.06.04.07.02.16-.04.2l-.13.07h0c.16,0,.32.07.43.18.12.11.18.27.18.43v.78l.43-.25.49-.29s.08-.03.12-.02c.04.01.08.04.1.07.02.04.03.08.01.12-.01.04-.04.08-.08.1l-.49.28c-.14.08-.19.26-.11.4.04.07.1.12.18.14.08.02.16.01.23-.03l1.18-.68c.45-.26.74-.72.77-1.23l.05-.72c0-.05.03-.1.08-.13l.65-.37-.6-1.04-.6-1.04ZM.26,3.12L1.92.26l.52.3L.77,3.42l-.51-.3ZM4.88,5.01v-.02c0-.16.07-.32.19-.43.12-.11.28-.17.44-.16.16,0,.32.08.43.2.03-.03.05-.05.08-.07,0-.03.01-.06.02-.09-.17-.05-.31-.15-.4-.3-.08-.13-.1-.29-.07-.44.04-.15.13-.28.26-.37.02-.02.04-.03.07-.04l.64-.37-.44-.25-.49-.29c-.08-.04-.1-.14-.06-.21.02-.04.06-.06.1-.07.04-.01.09,0,.12.02l.49.29c.14.07.32.02.4-.11.08-.14.04-.31-.1-.4l-1.18-.68c-.45-.26-.99-.28-1.45-.05l-.65.32s-.1.02-.15,0l-.65-.38-.6,1.04-.6,1.04.65.37s.04.03.05.05l.34.51c.13.2.31.36.51.48l2.05,1.18v-.77Z"/>
  </g>
</svg>