<?xml version="1.0" encoding="UTF-8"?>
<svg id="Layer_1" data-name="Layer 1" xmlns="http://www.w3.org/2000/svg" xmlns:xlink="http://www.w3.org/1999/xlink" viewBox="0 0 13.55 8.4">
  <defs>
    <style>
      .cls-1 {
        clip-path: url(#clippath);
      }

      .cls-2 {
        stroke-width: 0px;
      }

      .cls-2, .cls-3 {
        fill: none;
      }

      .cls-3 {
        stroke: #78b5bc;
        stroke-width: .38px;
      }

      .cls-4 {
        clip-path: url(#clippath-1);
      }

      .cls-5 {
        clip-path: url(#clippath-2);
      }
    </style>
    <clipPath id="clippath">
      <rect class="cls-2" width="13.55" height="8.4"/>
    </clipPath>
    <clipPath id="clippath-1">
      <rect class="cls-2" width="13.55" height="8.4"/>
    </clipPath>
    <clipPath id="clippath-2">
      <rect class="cls-2" width="13.55" height="8.4"/>
    </clipPath>
  </defs>
  <g class="cls-1">
    <path class="cls-3" d="M2.81,4.42h.44l.33,1.83-.55.42-.55-.42.33-1.83ZM2.77,3.67h.06s.06,0,.06,0h.26s.09,0,.13.01h.06s-.09.36-.09.36h-.46l-.09-.36h.05ZM5.41,4.58c-.05-.09-.11-.17-.18-.25-.4-.51-.97-.86-1.6-1.01.46-.19.81-.59.94-1.08.13-.49.03-1.01-.28-1.41-.31-.4-.78-.64-1.28-.64s-.97.24-1.27.64c-.31.4-.41.92-.28,1.41.13.49.48.89.94,1.08-.63.14-1.2.5-1.6,1-.4.51-.62,1.14-.62,1.79v.77s.02.1.05.13c.03.04.08.05.13.05h3.34"/>
  </g>
  <line class="cls-3" x1="1.89" y1="5.97" x2=".96" y2="5.97"/>
  <g class="cls-4">
    <path class="cls-3" d="M11.06,6.25l-.55.42-.55-.42.33-1.83h.44l.33,1.83ZM10.83,3.67l-.09.36h-.46l-.09-.36h.06s.09-.02.13-.02h.39s.05.01.05.01ZM9.83,7.07h3.34s.1-.02.13-.06c.03-.03.05-.08.05-.13v-.77c0-.65-.22-1.28-.62-1.8-.4-.51-.97-.86-1.6-1,.46-.19.81-.59.94-1.08.13-.49.03-1.01-.28-1.41-.3-.4-.78-.63-1.27-.63s-.97.23-1.28.63c-.31.4-.41.93-.28,1.41.13.49.48.89.94,1.08-.63.14-1.19.5-1.6,1.01-.06.08-.12.16-.18.25"/>
  </g>
  <line class="cls-3" x1="12.59" y1="5.97" x2="11.66" y2="5.97"/>
  <g class="cls-5">
    <path class="cls-3" d="M6.54,5.53h.44l.33,1.83-.55.42-.55-.42.33-1.83ZM6.5,4.78h.06s.06,0,.06,0h.26s.09,0,.13,0h.06s-.09.36-.09.36h-.46l-.09-.36h.05ZM4.12,8.21h5.3s.1-.02.13-.05c.03-.03.05-.08.05-.13v-.77c0-.65-.22-1.29-.62-1.79-.4-.51-.97-.87-1.6-1,.46-.19.81-.59.94-1.08.13-.49.03-1.01-.28-1.41-.31-.4-.78-.64-1.28-.64s-.97.24-1.27.64c-.31.4-.41.92-.28,1.41.13.49.48.89.94,1.08-.63.14-1.19.5-1.6,1.01-.4.51-.63,1.14-.63,1.79v.77s.02.1.05.13c.03.03.08.05.14.05Z"/>
  </g>
  <line class="cls-3" x1="8.86" y1="7.05" x2="7.93" y2="7.05"/>
</svg>