<?xml version="1.0" encoding="UTF-8"?>
<svg id="Layer_1" data-name="Layer 1" xmlns="http://www.w3.org/2000/svg" xmlns:xlink="http://www.w3.org/1999/xlink" viewBox="0 0 12.01 7.73">
  <defs>
    <style>
      .cls-1 {
        clip-path: url(#clippath);
      }

      .cls-2 {
        stroke-width: 0px;
      }

      .cls-2, .cls-3 {
        fill: none;
      }

      .cls-3 {
        stroke: #d5d695;
        stroke-width: .38px;
      }
    </style>
    <clipPath id="clippath">
      <rect class="cls-2" y="0" width="12.01" height="7.73"/>
    </clipPath>
  </defs>
  <g class="cls-1">
    <path class="cls-3" d="M11.41.96h-1v5.46h1c.24,0,.41-.19.41-.4V1.36c0-.21-.2-.4-.41-.4ZM.19,1.36v4.67c0,.23.2.4.41.4h1V.96H.6c-.24,0-.41.19-.41.4ZM4.9.37c-2.34,1.87-2.31,1.74-2.31,1.89,0,.19.24.42.37.53,1.09.65,2.49-.61,2.51-.63.26-.27.61-.23.74-.17.09.04-.11-.15,3.06,3.4.02-.02.02-.04.04-.04.19-.13.46-.15.66-.13V1.55c-.55-.13-2.1-.53-2.6-.9-.5-.23-1.88-.71-2.47-.27ZM5.78,2.43c-.09.08-1.66,1.51-3.06.67-.09-.06-.59-.44-.57-.88,0-.08.02-.17.09-.27l-.2-.06v3.4c.22.06.57.17.79.4.78.63,2.16,1.64,2.51,1.77,0,0,.02,0,.02.02.11.04.28.1.37.04.04-.02.09-.13.09-.25l-.55-.76c-.06-.1-.04-.23.06-.29.09-.06.24-.04.31.06l.57.78c.13.1.44.23.59.17.09-.04.13-.17.17-.3l-.59-.76c-.07-.1-.04-.23.06-.29.09-.06.24-.04.31.06.7.97.53.74.57.78.17.13.5.32.63.23.09-.04.15-.19.15-.42l-.54-.78c-.06-.1-.04-.23.06-.3.11-.06.24-.04.31.06l.55.76c.13.08.44.21.61.15.09-.04.15-.19.17-.42l-3.27-3.65c-.07,0-.13,0-.22.08Z"/>
  </g>
</svg>