<svg width="44" height="41" viewBox="0 0 44 41" fill="none" xmlns="http://www.w3.org/2000/svg">
<g clip-path="url(#clip0_1678_17121)">
<path d="M0 29.9526V33.1415H3.18346V40.9999H7.61757V33.1415H10.6873V29.9526H0Z" fill="#3D85C6"/>
<path d="M21.3745 29.9526V33.1415H24.558V40.9999H28.9921V33.1415H32.0619V29.9526H21.3745Z" fill="#3D85C6"/>
<path d="M13.7571 29.9526L9.66406 40.9999H13.8708L16.031 34.2804L18.3049 40.9999H22.6253L18.4186 29.9526H13.7571Z" fill="#3D85C6"/>
<path d="M35.1316 29.9526L31.0386 40.9999H35.2453L37.5192 34.2804L39.6794 40.9999H43.9998L39.6794 29.9526H35.1316Z" fill="#3D85C6"/>
<path d="M16.5996 21.6387C10.1189 20.0442 5.34375 15.9442 5.34375 11.047C5.34375 10.4776 5.45745 9.79423 5.57114 9.22479C8.7546 8.31368 17.0543 7.0609 18.6461 8.0859C19.6693 8.76923 17.7365 16.7415 16.5996 21.6387Z" fill="#3D85C6"/>
<path d="M38.3154 9.33905C38.4291 9.90849 38.5428 10.4779 38.5428 11.1613C38.5428 16.0585 33.7676 20.1585 27.287 21.639C26.15 16.7418 24.2172 8.7696 25.2404 8.20016C26.7185 7.17516 35.1319 8.42794 38.3154 9.33905Z" fill="#3D85C6"/>
<path d="M21.9434 0C29.1062 0 35.2457 3.075 37.5196 7.28889C34.9047 6.83333 22.5119 3.87222 22.6256 6.37778V22.2083H21.1475V6.37778C21.3749 3.87222 8.98217 6.94722 6.36719 7.28889C8.64109 3.075 14.7806 0 21.9434 0Z" fill="#3D85C6"/>
</g>
<defs>
<clipPath id="clip0_1678_17121">
<rect width="44" height="41" fill="white"/>
</clipPath>
</defs>
</svg>
