<svg width="240" height="15" viewBox="0 0 240 15" fill="none" xmlns="http://www.w3.org/2000/svg">
<g clip-path="url(#clip0_33_86)">
<mask id="mask0_33_86" style="mask-type:luminance" maskUnits="userSpaceOnUse" x="0" y="0" width="240" height="15">
<path d="M240 0H0V15H240V0Z" fill="white"/>
</mask>
<g mask="url(#mask0_33_86)">
<path d="M76.2007 14.3338C75.589 14.6567 74.2376 15 72.5304 15C68.0206 15 65.2778 12.0899 65.2778 7.67166C65.2778 2.88965 68.5243 0 72.8703 0C74.5775 0 75.8009 0.367847 76.3247 0.645777L75.7569 2.75886C75.0813 2.4564 74.1537 2.19891 72.9742 2.19891C70.0876 2.19891 67.9966 4.05041 67.9966 7.54496C67.9966 10.733 69.8317 12.7807 72.9503 12.7807C74.0018 12.7807 75.1012 12.564 75.7729 12.2411" fill="#3D86C6"/>
<path d="M79.8672 7.56539C79.8672 10.5163 81.3226 12.8869 83.8094 12.8869C86.2962 12.8869 87.7316 10.4918 87.7316 7.45504C87.7316 4.71662 86.4042 2.10899 83.8094 2.10899C81.2146 2.10899 79.8672 4.56539 79.8672 7.56131M90.4703 7.34469C90.4703 12.2166 87.5836 14.9959 83.6615 14.9959C79.7393 14.9959 77.1245 11.8692 77.1245 7.60627C77.1245 3.34332 79.8672 0 83.8734 0C87.8795 0 90.4703 3.21253 90.4703 7.34877" fill="#3D86C6"/>
<path d="M104.7 8.83627C104.616 6.96025 104.512 4.70003 104.532 2.71774H104.468C104.004 4.50385 103.412 6.4657 102.78 8.29676L100.713 14.591H98.7103L96.8152 8.38668C96.2675 6.53518 95.7637 4.55289 95.3799 2.71774H95.3359C95.2719 4.63464 95.188 6.9439 95.084 8.9221L94.7682 14.7627H92.3413L93.2889 0.236816H96.7033L98.5584 6.07742C99.0622 7.77769 99.506 9.50248 99.8658 11.121H99.9298C100.31 9.54744 100.797 7.76134 101.345 6.05698L103.304 0.236816H106.679L107.502 14.7627H104.975" fill="#3D86C6"/>
<path d="M122.136 8.83627C122.052 6.96025 121.944 4.70003 121.968 2.71774H121.904C121.44 4.50385 120.852 6.4657 120.216 8.29676L118.149 14.591H116.146L114.247 8.38668C113.7 6.53518 113.192 4.55289 112.812 2.71774H112.768C112.704 4.63464 112.62 6.9439 112.516 8.9221L112.2 14.7627H109.777L110.725 0.236816H114.139L115.994 6.07742C116.498 7.77769 116.942 9.50248 117.302 11.121H117.366C117.746 9.54744 118.229 7.76134 118.777 6.05698L120.74 0.236816H124.111L124.934 14.7627H122.403" fill="#3D86C6"/>
<path d="M130.144 0.236816V8.70548C130.144 11.5502 131.303 12.8662 133.055 12.8662C134.934 12.8662 136.049 11.5543 136.049 8.70548V0.236816H138.64V8.53382C138.64 13.0175 136.385 14.9998 132.971 14.9998C129.556 14.9998 127.553 13.1278 127.553 8.55425V0.236816" fill="#3D86C6"/>
<path d="M141.614 14.763V0.241211H144.565L148.235 6.47009C149.187 8.08862 150.006 9.76846 150.654 11.342H150.698C150.53 9.40061 150.47 7.52459 150.47 5.30524V0.241211H152.873V14.7671H150.194L146.488 8.36655C145.58 6.79298 144.633 5.00279 143.937 3.36791L143.873 3.38835C143.977 5.26437 144.001 7.18127 144.001 9.57227V14.7671" fill="#3D86C6"/>
</g>
<path d="M158.454 0.236816H155.863V14.7627H158.454V0.236816Z" fill="#3D86C6"/>
<mask id="mask1_33_86" style="mask-type:luminance" maskUnits="userSpaceOnUse" x="0" y="0" width="240" height="15">
<path d="M240 0H0V15H240V0Z" fill="white"/>
</mask>
<g mask="url(#mask1_33_86)">
<path d="M171.612 14.3338C171 14.6567 169.649 15 167.941 15C163.432 15 160.693 12.0899 160.693 7.67166C160.693 2.88965 163.939 0 168.281 0C169.989 0 171.212 0.367847 171.74 0.645777L171.172 2.75886C170.496 2.4564 169.569 2.19891 168.389 2.19891C165.499 2.19891 163.412 4.05041 163.412 7.54496C163.412 10.733 165.247 12.7807 168.369 12.7807C169.421 12.7807 170.52 12.564 171.192 12.2411" fill="#3D86C6"/>
<path d="M180.883 8.64417L179.768 5.06379C179.492 4.18096 179.26 3.19186 179.052 2.3499H179.008C178.796 3.19186 178.588 4.20139 178.333 5.06379L177.237 8.64417M176.817 10.6469L175.594 14.7627H172.915L177.473 0.236816H180.779L185.397 14.7627H182.615L181.327 10.6469H176.817Z" fill="#3D86C6"/>
</g>
<path d="M184.342 0.236816V2.46025H188.392V14.7627H190.983V2.46025H195.077V0.236816H184.342Z" fill="#3D86C6"/>
<path d="M199.331 0.236816H196.74V14.7627H199.331V0.236816Z" fill="#3D86C6"/>
<mask id="mask2_33_86" style="mask-type:luminance" maskUnits="userSpaceOnUse" x="0" y="0" width="240" height="15">
<path d="M240 0H0V15H240V0Z" fill="white"/>
</mask>
<g mask="url(#mask2_33_86)">
<path d="M204.305 7.56539C204.305 10.5163 205.76 12.8869 208.247 12.8869C210.734 12.8869 212.169 10.4918 212.169 7.45504C212.169 4.71662 210.842 2.10899 208.247 2.10899C205.652 2.10899 204.305 4.56539 204.305 7.56131M214.908 7.34469C214.908 12.2166 212.021 14.9959 208.099 14.9959C204.177 14.9959 201.562 11.8692 201.562 7.60627C201.562 3.34332 204.305 0 208.315 0C212.325 0 214.912 3.21253 214.912 7.34877" fill="#3D86C6"/>
<path d="M217.143 14.763V0.241211H220.094L223.764 6.47009C224.712 8.08862 225.535 9.76846 226.187 11.342H226.231C226.063 9.40061 225.995 7.52459 225.995 5.30524V0.241211H228.398V14.7671H225.719L222.009 8.36655C221.105 6.79298 220.15 5.00279 219.458 3.36791L219.398 3.38835C219.502 5.26437 219.526 7.18127 219.526 9.57227V14.7671" fill="#3D86C6"/>
<path d="M231.328 11.8733C232.172 12.3719 233.439 12.8011 234.766 12.8011C236.434 12.8011 237.361 12.0041 237.361 10.8188C237.361 9.71935 236.638 9.07357 234.826 8.40327C232.487 7.54087 230.992 6.26975 230.992 4.1812C230.992 1.81063 232.931 0 236.01 0C237.549 0 238.689 0.343324 239.424 0.731608L238.793 2.86512C238.289 2.58719 237.297 2.17439 235.966 2.17439C234.327 2.17439 233.603 3.07766 233.603 3.91962C233.603 5.03951 234.427 5.55858 236.326 6.31063C238.793 7.25886 239.996 8.52997 239.996 10.6226C239.996 12.9482 238.265 14.9959 234.598 14.9959C233.103 14.9959 231.544 14.5422 230.76 14.0681" fill="#3D86C6"/>
</g>
<path d="M0 0.13916V4.41845H4.05411V14.7018H9.8634V4.41845H13.7976V0.13916H0Z" fill="#3D86C6"/>
<path d="M27.5273 0.13916V4.41845H31.5815V14.7018H37.3867V4.41845H41.3249V0.13916H27.5273Z" fill="#3D86C6"/>
<path d="M17.6956 0.15918L12.478 14.7218H17.8235L20.6982 5.91803L23.5808 14.7218H29.1742L23.6328 0.15918H17.6956Z" fill="#3D86C6"/>
<path d="M45.2067 0.155273L39.9932 14.7179H45.3387L48.2773 5.91822L51.092 14.7179H56.6894L51.084 0.155273H45.2067Z" fill="#3D86C6"/>
</g>
<defs>
<clipPath id="clip0_33_86">
<rect width="240" height="15" fill="white"/>
</clipPath>
</defs>
</svg>
